<mxfile host="app.diagrams.net" agent="Mozilla/5.0 (Macintosh; Intel Mac OS X 10_15_7) AppleWebKit/537.36 (KHTML, like Gecko) Chrome/140.0.0.0 Safari/537.36" version="28.2.4">
  <diagram name="Página-1" id="a5rc6l0APtxZ6rSmaDwm">
    <mxGraphModel dx="1502" dy="968" grid="1" gridSize="10" guides="1" tooltips="1" connect="1" arrows="1" fold="1" page="1" pageScale="1" pageWidth="827" pageHeight="1169" math="0" shadow="0">
      <root>
        <mxCell id="0" />
        <mxCell id="1" parent="0" />
        <mxCell id="2ViMYwcmXeeDXYcHtWxy-19" value="" style="rounded=1;whiteSpace=wrap;html=1;fillColor=none;" parent="1" vertex="1">
          <mxGeometry x="20" y="30" width="520" height="690" as="geometry" />
        </mxCell>
        <mxCell id="2ViMYwcmXeeDXYcHtWxy-16" style="edgeStyle=orthogonalEdgeStyle;rounded=0;orthogonalLoop=1;jettySize=auto;html=1;entryX=0;entryY=0.5;entryDx=0;entryDy=0;exitX=0.5;exitY=0;exitDx=0;exitDy=0;" parent="1" source="2ViMYwcmXeeDXYcHtWxy-1" target="2ViMYwcmXeeDXYcHtWxy-14" edge="1">
          <mxGeometry relative="1" as="geometry" />
        </mxCell>
        <mxCell id="2ViMYwcmXeeDXYcHtWxy-1" value="ORIGEN" style="rounded=1;whiteSpace=wrap;html=1;" parent="1" vertex="1">
          <mxGeometry x="110" y="310" width="120" height="80" as="geometry" />
        </mxCell>
        <mxCell id="2ViMYwcmXeeDXYcHtWxy-4" style="edgeStyle=orthogonalEdgeStyle;rounded=0;orthogonalLoop=1;jettySize=auto;html=1;exitX=0;exitY=0.5;exitDx=0;exitDy=0;entryX=1;entryY=0.5;entryDx=0;entryDy=0;" parent="1" source="2ViMYwcmXeeDXYcHtWxy-2" target="2ViMYwcmXeeDXYcHtWxy-1" edge="1">
          <mxGeometry relative="1" as="geometry" />
        </mxCell>
        <mxCell id="2ViMYwcmXeeDXYcHtWxy-2" value="CORE &amp;amp; OPS" style="rounded=1;whiteSpace=wrap;html=1;" parent="1" vertex="1">
          <mxGeometry x="350" y="310" width="120" height="80" as="geometry" />
        </mxCell>
        <mxCell id="2ViMYwcmXeeDXYcHtWxy-9" style="edgeStyle=orthogonalEdgeStyle;rounded=0;orthogonalLoop=1;jettySize=auto;html=1;exitX=0;exitY=0.5;exitDx=0;exitDy=0;entryX=1;entryY=0.5;entryDx=0;entryDy=0;" parent="1" source="2ViMYwcmXeeDXYcHtWxy-3" target="2ViMYwcmXeeDXYcHtWxy-2" edge="1">
          <mxGeometry relative="1" as="geometry" />
        </mxCell>
        <mxCell id="2ViMYwcmXeeDXYcHtWxy-15" style="edgeStyle=orthogonalEdgeStyle;rounded=0;orthogonalLoop=1;jettySize=auto;html=1;entryX=1;entryY=0.5;entryDx=0;entryDy=0;exitX=0.5;exitY=0;exitDx=0;exitDy=0;" parent="1" source="2ViMYwcmXeeDXYcHtWxy-3" target="2ViMYwcmXeeDXYcHtWxy-14" edge="1">
          <mxGeometry relative="1" as="geometry" />
        </mxCell>
        <mxCell id="2ViMYwcmXeeDXYcHtWxy-3" value="COCKPIT" style="rounded=1;whiteSpace=wrap;html=1;" parent="1" vertex="1">
          <mxGeometry x="600" y="310" width="110" height="80" as="geometry" />
        </mxCell>
        <mxCell id="2ViMYwcmXeeDXYcHtWxy-7" style="edgeStyle=orthogonalEdgeStyle;rounded=0;orthogonalLoop=1;jettySize=auto;html=1;" parent="1" source="2ViMYwcmXeeDXYcHtWxy-5" target="2ViMYwcmXeeDXYcHtWxy-1" edge="1">
          <mxGeometry relative="1" as="geometry">
            <Array as="points">
              <mxPoint x="110" y="450" />
              <mxPoint x="140" y="450" />
            </Array>
          </mxGeometry>
        </mxCell>
        <mxCell id="2ViMYwcmXeeDXYcHtWxy-5" value="PROMOWISE" style="rounded=1;whiteSpace=wrap;html=1;" parent="1" vertex="1">
          <mxGeometry x="50" y="510" width="120" height="80" as="geometry" />
        </mxCell>
        <mxCell id="2ViMYwcmXeeDXYcHtWxy-6" value="PROMOLAB" style="rounded=1;whiteSpace=wrap;html=1;" parent="1" vertex="1">
          <mxGeometry x="190" y="510" width="120" height="80" as="geometry" />
        </mxCell>
        <mxCell id="2ViMYwcmXeeDXYcHtWxy-8" style="edgeStyle=orthogonalEdgeStyle;rounded=0;orthogonalLoop=1;jettySize=auto;html=1;entryX=0.65;entryY=0.988;entryDx=0;entryDy=0;entryPerimeter=0;exitX=0.5;exitY=0;exitDx=0;exitDy=0;" parent="1" source="2ViMYwcmXeeDXYcHtWxy-6" target="2ViMYwcmXeeDXYcHtWxy-1" edge="1">
          <mxGeometry relative="1" as="geometry" />
        </mxCell>
        <mxCell id="2ViMYwcmXeeDXYcHtWxy-10" value="CARGA DE IMAGENS" style="text;html=1;align=center;verticalAlign=middle;resizable=0;points=[];autosize=1;strokeColor=none;fillColor=none;" parent="1" vertex="1">
          <mxGeometry x="580" y="400" width="140" height="30" as="geometry" />
        </mxCell>
        <mxCell id="2ViMYwcmXeeDXYcHtWxy-11" value="LIGAR/DESLIGAR PROMOCOES" style="text;html=1;align=center;verticalAlign=middle;resizable=0;points=[];autosize=1;strokeColor=none;fillColor=none;" parent="1" vertex="1">
          <mxGeometry x="545" y="430" width="210" height="30" as="geometry" />
        </mxCell>
        <mxCell id="2ViMYwcmXeeDXYcHtWxy-12" value="NOME&amp;nbsp;" style="text;html=1;align=center;verticalAlign=middle;resizable=0;points=[];autosize=1;strokeColor=none;fillColor=none;" parent="1" vertex="1">
          <mxGeometry x="620" y="460" width="60" height="30" as="geometry" />
        </mxCell>
        <mxCell id="2ViMYwcmXeeDXYcHtWxy-14" value="EDB" style="rounded=1;whiteSpace=wrap;html=1;" parent="1" vertex="1">
          <mxGeometry x="350" y="180" width="120" height="80" as="geometry" />
        </mxCell>
        <mxCell id="2ViMYwcmXeeDXYcHtWxy-18" style="edgeStyle=orthogonalEdgeStyle;rounded=0;orthogonalLoop=1;jettySize=auto;html=1;exitX=0.5;exitY=1;exitDx=0;exitDy=0;entryX=0.5;entryY=0;entryDx=0;entryDy=0;" parent="1" source="2ViMYwcmXeeDXYcHtWxy-17" target="2ViMYwcmXeeDXYcHtWxy-14" edge="1">
          <mxGeometry relative="1" as="geometry" />
        </mxCell>
        <mxCell id="2ViMYwcmXeeDXYcHtWxy-17" value="JUNTOS+" style="rounded=1;whiteSpace=wrap;html=1;" parent="1" vertex="1">
          <mxGeometry x="350" y="60" width="120" height="80" as="geometry" />
        </mxCell>
        <mxCell id="2ViMYwcmXeeDXYcHtWxy-22" value="CONSUMO PROMOS ORIGEM" style="text;html=1;align=center;verticalAlign=middle;resizable=0;points=[];autosize=1;strokeColor=none;fillColor=none;" parent="1" vertex="1">
          <mxGeometry x="319" y="400" width="190" height="30" as="geometry" />
        </mxCell>
        <mxCell id="2ViMYwcmXeeDXYcHtWxy-23" value="DADOS OMNICANAL" style="text;html=1;align=center;verticalAlign=middle;resizable=0;points=[];autosize=1;strokeColor=none;fillColor=none;" parent="1" vertex="1">
          <mxGeometry x="340" y="430" width="140" height="30" as="geometry" />
        </mxCell>
        <mxCell id="2ViMYwcmXeeDXYcHtWxy-24" value="EXPOR DADOS FRONTS" style="text;html=1;align=center;verticalAlign=middle;resizable=0;points=[];autosize=1;strokeColor=none;fillColor=none;" parent="1" vertex="1">
          <mxGeometry x="330" y="460" width="160" height="30" as="geometry" />
        </mxCell>
        <mxCell id="mtaF9fKcRwbSf19sw3Pu-1" value="DESCRIÇAO" style="text;html=1;align=center;verticalAlign=middle;resizable=0;points=[];autosize=1;strokeColor=none;fillColor=none;" vertex="1" parent="1">
          <mxGeometry x="605" y="490" width="90" height="30" as="geometry" />
        </mxCell>
        <mxCell id="mtaF9fKcRwbSf19sw3Pu-2" value="COCKPIT" style="rounded=1;whiteSpace=wrap;html=1;" vertex="1" parent="1">
          <mxGeometry x="1040" y="160" width="320" height="80" as="geometry" />
        </mxCell>
        <mxCell id="mtaF9fKcRwbSf19sw3Pu-3" value="AS IS SOLUTION" style="rounded=1;whiteSpace=wrap;html=1;fillColor=#fff2cc;strokeColor=#d6b656;" vertex="1" parent="1">
          <mxGeometry x="1040" y="100" width="320" height="40" as="geometry" />
        </mxCell>
        <mxCell id="mtaF9fKcRwbSf19sw3Pu-4" value="Exclusively works for PROMO PUSH&lt;div&gt;Scope:&lt;/div&gt;&lt;div&gt;&lt;ul&gt;&lt;li&gt;Image selection (manual and batch)&lt;/li&gt;&lt;li&gt;Promo status (active/inactive - manual and batch)&lt;/li&gt;&lt;li&gt;Marketable name&lt;/li&gt;&lt;li&gt;Description&lt;/li&gt;&lt;/ul&gt;&lt;/div&gt;&lt;div&gt;&lt;br&gt;&lt;/div&gt;" style="text;html=1;align=left;verticalAlign=middle;resizable=0;points=[];autosize=1;strokeColor=none;fillColor=none;" vertex="1" parent="1">
          <mxGeometry x="1040" y="245" width="330" height="140" as="geometry" />
        </mxCell>
        <mxCell id="mtaF9fKcRwbSf19sw3Pu-5" value="COCKPIT" style="rounded=1;whiteSpace=wrap;html=1;" vertex="1" parent="1">
          <mxGeometry x="1440" y="160" width="320" height="80" as="geometry" />
        </mxCell>
        <mxCell id="mtaF9fKcRwbSf19sw3Pu-6" value="AS IS + NEW TYPES OF PROMOTIONS" style="rounded=1;whiteSpace=wrap;html=1;fillColor=#d5e8d4;strokeColor=#82b366;" vertex="1" parent="1">
          <mxGeometry x="1440" y="100" width="320" height="40" as="geometry" />
        </mxCell>
        <mxCell id="mtaF9fKcRwbSf19sw3Pu-7" value="&lt;ul&gt;&lt;li&gt;What changes?&lt;/li&gt;&lt;li&gt;What data is it needed?&lt;/li&gt;&lt;li&gt;Where to push and pull information?&lt;/li&gt;&lt;/ul&gt;&lt;div&gt;&lt;br&gt;&lt;/div&gt;" style="text;html=1;align=left;verticalAlign=middle;resizable=0;points=[];autosize=1;strokeColor=none;fillColor=none;" vertex="1" parent="1">
          <mxGeometry x="1440" y="265" width="260" height="100" as="geometry" />
        </mxCell>
        <mxCell id="mtaF9fKcRwbSf19sw3Pu-11" style="edgeStyle=orthogonalEdgeStyle;rounded=0;orthogonalLoop=1;jettySize=auto;html=1;entryX=0.5;entryY=0;entryDx=0;entryDy=0;" edge="1" parent="1" source="mtaF9fKcRwbSf19sw3Pu-8" target="mtaF9fKcRwbSf19sw3Pu-10">
          <mxGeometry relative="1" as="geometry" />
        </mxCell>
        <mxCell id="mtaF9fKcRwbSf19sw3Pu-8" value="COCKPIT Promo Module" style="rounded=1;whiteSpace=wrap;html=1;" vertex="1" parent="1">
          <mxGeometry x="1080" y="600" width="240" height="80" as="geometry" />
        </mxCell>
        <mxCell id="mtaF9fKcRwbSf19sw3Pu-9" value="DECISION TREE" style="rounded=1;whiteSpace=wrap;html=1;fillColor=#fff2cc;strokeColor=#d6b656;" vertex="1" parent="1">
          <mxGeometry x="1040" y="520" width="320" height="40" as="geometry" />
        </mxCell>
        <mxCell id="mtaF9fKcRwbSf19sw3Pu-14" style="edgeStyle=orthogonalEdgeStyle;rounded=0;orthogonalLoop=1;jettySize=auto;html=1;entryX=0.5;entryY=0;entryDx=0;entryDy=0;fillColor=#f8cecc;strokeColor=#b85450;strokeWidth=3;" edge="1" parent="1" source="mtaF9fKcRwbSf19sw3Pu-10" target="mtaF9fKcRwbSf19sw3Pu-12">
          <mxGeometry relative="1" as="geometry" />
        </mxCell>
        <mxCell id="mtaF9fKcRwbSf19sw3Pu-16" value="&lt;font style=&quot;color: rgb(255, 0, 0);&quot;&gt;&lt;b&gt;NO&lt;/b&gt;&lt;/font&gt;" style="edgeLabel;html=1;align=center;verticalAlign=middle;resizable=0;points=[];" vertex="1" connectable="0" parent="mtaF9fKcRwbSf19sw3Pu-14">
          <mxGeometry x="0.132" y="-1" relative="1" as="geometry">
            <mxPoint x="15" as="offset" />
          </mxGeometry>
        </mxCell>
        <mxCell id="mtaF9fKcRwbSf19sw3Pu-15" style="edgeStyle=orthogonalEdgeStyle;rounded=0;orthogonalLoop=1;jettySize=auto;html=1;entryX=0.5;entryY=0;entryDx=0;entryDy=0;fillColor=#d5e8d4;strokeColor=#82b366;strokeWidth=3;" edge="1" parent="1" source="mtaF9fKcRwbSf19sw3Pu-10" target="mtaF9fKcRwbSf19sw3Pu-13">
          <mxGeometry relative="1" as="geometry" />
        </mxCell>
        <mxCell id="mtaF9fKcRwbSf19sw3Pu-17" value="&lt;font style=&quot;color: rgb(0, 204, 0);&quot;&gt;&lt;b&gt;YES&lt;/b&gt;&lt;/font&gt;" style="edgeLabel;html=1;align=center;verticalAlign=middle;resizable=0;points=[];" vertex="1" connectable="0" parent="mtaF9fKcRwbSf19sw3Pu-15">
          <mxGeometry x="-0.0795" y="1" relative="1" as="geometry">
            <mxPoint as="offset" />
          </mxGeometry>
        </mxCell>
        <mxCell id="mtaF9fKcRwbSf19sw3Pu-10" value="Is country enabled on Core&amp;amp;Ops?" style="rhombus;whiteSpace=wrap;html=1;" vertex="1" parent="1">
          <mxGeometry x="1120" y="720" width="160" height="160" as="geometry" />
        </mxCell>
        <mxCell id="mtaF9fKcRwbSf19sw3Pu-12" value="Legacy EDB Solution" style="rounded=1;whiteSpace=wrap;html=1;" vertex="1" parent="1">
          <mxGeometry x="1000" y="960" width="150" height="80" as="geometry" />
        </mxCell>
        <mxCell id="mtaF9fKcRwbSf19sw3Pu-13" value="Core&amp;amp;OPS Solution" style="rounded=1;whiteSpace=wrap;html=1;" vertex="1" parent="1">
          <mxGeometry x="1241" y="960" width="150" height="80" as="geometry" />
        </mxCell>
        <mxCell id="mtaF9fKcRwbSf19sw3Pu-19" value="ARCHITECTURE SOLUTION&amp;nbsp;&lt;div&gt;Load Promos&lt;/div&gt;" style="rounded=1;whiteSpace=wrap;html=1;fillColor=#fff2cc;strokeColor=#d6b656;" vertex="1" parent="1">
          <mxGeometry x="1600" y="520" width="440" height="40" as="geometry" />
        </mxCell>
        <mxCell id="mtaF9fKcRwbSf19sw3Pu-20" value="COCKPIT Promo Module" style="rounded=1;whiteSpace=wrap;html=1;" vertex="1" parent="1">
          <mxGeometry x="1700" y="600" width="240" height="80" as="geometry" />
        </mxCell>
        <mxCell id="mtaF9fKcRwbSf19sw3Pu-24" value="" style="edgeStyle=orthogonalEdgeStyle;rounded=0;orthogonalLoop=1;jettySize=auto;html=1;exitX=0.5;exitY=1;exitDx=0;exitDy=0;" edge="1" parent="1" source="mtaF9fKcRwbSf19sw3Pu-20" target="mtaF9fKcRwbSf19sw3Pu-23">
          <mxGeometry relative="1" as="geometry">
            <mxPoint x="1910" y="759.9999999999998" as="sourcePoint" />
          </mxGeometry>
        </mxCell>
        <mxCell id="mtaF9fKcRwbSf19sw3Pu-33" value="Cargar Promos" style="edgeLabel;html=1;align=center;verticalAlign=middle;resizable=0;points=[];" vertex="1" connectable="0" parent="mtaF9fKcRwbSf19sw3Pu-24">
          <mxGeometry x="-0.2234" y="-1" relative="1" as="geometry">
            <mxPoint as="offset" />
          </mxGeometry>
        </mxCell>
        <mxCell id="mtaF9fKcRwbSf19sw3Pu-27" style="edgeStyle=orthogonalEdgeStyle;rounded=0;orthogonalLoop=1;jettySize=auto;html=1;exitX=0;exitY=0.5;exitDx=0;exitDy=0;strokeWidth=3;fillColor=#d5e8d4;strokeColor=#82b366;" edge="1" parent="1" source="mtaF9fKcRwbSf19sw3Pu-23" target="mtaF9fKcRwbSf19sw3Pu-25">
          <mxGeometry relative="1" as="geometry" />
        </mxCell>
        <mxCell id="mtaF9fKcRwbSf19sw3Pu-29" value="&lt;b&gt;&lt;font style=&quot;color: rgb(0, 204, 0);&quot;&gt;YES&lt;/font&gt;&lt;/b&gt;" style="edgeLabel;html=1;align=center;verticalAlign=middle;resizable=0;points=[];" vertex="1" connectable="0" parent="mtaF9fKcRwbSf19sw3Pu-27">
          <mxGeometry x="-0.2457" y="4" relative="1" as="geometry">
            <mxPoint x="25" y="-4" as="offset" />
          </mxGeometry>
        </mxCell>
        <mxCell id="mtaF9fKcRwbSf19sw3Pu-28" style="edgeStyle=orthogonalEdgeStyle;rounded=0;orthogonalLoop=1;jettySize=auto;html=1;entryX=0.5;entryY=0;entryDx=0;entryDy=0;exitX=1;exitY=0.5;exitDx=0;exitDy=0;fillColor=#f8cecc;strokeColor=#b85450;strokeWidth=4;" edge="1" parent="1" source="mtaF9fKcRwbSf19sw3Pu-23" target="mtaF9fKcRwbSf19sw3Pu-26">
          <mxGeometry relative="1" as="geometry" />
        </mxCell>
        <mxCell id="mtaF9fKcRwbSf19sw3Pu-30" value="&lt;b&gt;&lt;font style=&quot;color: rgb(255, 0, 0);&quot;&gt;NO&lt;/font&gt;&lt;/b&gt;" style="edgeLabel;html=1;align=center;verticalAlign=middle;resizable=0;points=[];" vertex="1" connectable="0" parent="mtaF9fKcRwbSf19sw3Pu-28">
          <mxGeometry x="-0.3165" y="2" relative="1" as="geometry">
            <mxPoint x="-36" y="2" as="offset" />
          </mxGeometry>
        </mxCell>
        <mxCell id="mtaF9fKcRwbSf19sw3Pu-23" value="Is country enabled on Core&amp;amp;Ops?" style="rhombus;whiteSpace=wrap;html=1;rounded=1;" vertex="1" parent="1">
          <mxGeometry x="1745" y="770" width="150" height="150" as="geometry" />
        </mxCell>
        <mxCell id="mtaF9fKcRwbSf19sw3Pu-32" value="" style="edgeStyle=orthogonalEdgeStyle;rounded=0;orthogonalLoop=1;jettySize=auto;html=1;" edge="1" parent="1" source="mtaF9fKcRwbSf19sw3Pu-25" target="mtaF9fKcRwbSf19sw3Pu-31">
          <mxGeometry relative="1" as="geometry" />
        </mxCell>
        <mxCell id="mtaF9fKcRwbSf19sw3Pu-39" style="edgeStyle=orthogonalEdgeStyle;rounded=0;orthogonalLoop=1;jettySize=auto;html=1;exitX=0.25;exitY=0;exitDx=0;exitDy=0;entryX=0;entryY=0.5;entryDx=0;entryDy=0;dashed=1;" edge="1" parent="1" source="mtaF9fKcRwbSf19sw3Pu-25" target="mtaF9fKcRwbSf19sw3Pu-20">
          <mxGeometry relative="1" as="geometry" />
        </mxCell>
        <mxCell id="mtaF9fKcRwbSf19sw3Pu-40" value="Adapt response to Cockpit&amp;nbsp;&lt;div&gt;omnichannel experience&lt;/div&gt;" style="edgeLabel;html=1;align=center;verticalAlign=middle;resizable=0;points=[];" vertex="1" connectable="0" parent="mtaF9fKcRwbSf19sw3Pu-39">
          <mxGeometry x="0.1102" y="-3" relative="1" as="geometry">
            <mxPoint as="offset" />
          </mxGeometry>
        </mxCell>
        <mxCell id="mtaF9fKcRwbSf19sw3Pu-25" value="Core&amp;amp;Ops Adapter" style="rounded=1;whiteSpace=wrap;html=1;" vertex="1" parent="1">
          <mxGeometry x="1587.5" y="960" width="160" height="80" as="geometry" />
        </mxCell>
        <mxCell id="mtaF9fKcRwbSf19sw3Pu-44" style="edgeStyle=orthogonalEdgeStyle;rounded=0;orthogonalLoop=1;jettySize=auto;html=1;exitX=0.5;exitY=1;exitDx=0;exitDy=0;entryX=0.5;entryY=0;entryDx=0;entryDy=0;" edge="1" parent="1" source="mtaF9fKcRwbSf19sw3Pu-26" target="mtaF9fKcRwbSf19sw3Pu-41">
          <mxGeometry relative="1" as="geometry" />
        </mxCell>
        <mxCell id="mtaF9fKcRwbSf19sw3Pu-47" value="&lt;meta charset=&quot;utf-8&quot;&gt;&lt;span style=&quot;color: rgb(0, 0, 0); font-family: Helvetica; font-size: 11px; font-style: normal; font-variant-ligatures: normal; font-variant-caps: normal; font-weight: 400; letter-spacing: normal; orphans: 2; text-align: center; text-indent: 0px; text-transform: none; widows: 2; word-spacing: 0px; -webkit-text-stroke-width: 0px; white-space: nowrap; background-color: rgb(255, 255, 255); text-decoration-thickness: initial; text-decoration-style: initial; text-decoration-color: initial; display: inline !important; float: none;&quot;&gt;Adapt response to Cockpit&amp;nbsp;&lt;/span&gt;&lt;div style=&quot;forced-color-adjust: none; color: rgb(0, 0, 0); font-family: Helvetica; font-size: 11px; font-style: normal; font-variant-ligatures: normal; font-variant-caps: normal; font-weight: 400; letter-spacing: normal; orphans: 2; text-align: center; text-indent: 0px; text-transform: none; widows: 2; word-spacing: 0px; -webkit-text-stroke-width: 0px; white-space: nowrap; text-decoration-thickness: initial; text-decoration-style: initial; text-decoration-color: initial;&quot;&gt;omnichannel experience&lt;/div&gt;" style="edgeStyle=orthogonalEdgeStyle;rounded=0;orthogonalLoop=1;jettySize=auto;html=1;exitX=0.75;exitY=0;exitDx=0;exitDy=0;entryX=1;entryY=0.5;entryDx=0;entryDy=0;dashed=1;" edge="1" parent="1" source="mtaF9fKcRwbSf19sw3Pu-26" target="mtaF9fKcRwbSf19sw3Pu-20">
          <mxGeometry x="0.2229" relative="1" as="geometry">
            <mxPoint as="offset" />
          </mxGeometry>
        </mxCell>
        <mxCell id="mtaF9fKcRwbSf19sw3Pu-26" value="EDB Adapter" style="rounded=1;whiteSpace=wrap;html=1;" vertex="1" parent="1">
          <mxGeometry x="1892.5" y="960" width="160" height="80" as="geometry" />
        </mxCell>
        <mxCell id="mtaF9fKcRwbSf19sw3Pu-37" style="edgeStyle=orthogonalEdgeStyle;rounded=0;orthogonalLoop=1;jettySize=auto;html=1;exitX=0.25;exitY=0;exitDx=0;exitDy=0;entryX=0.25;entryY=1;entryDx=0;entryDy=0;dashed=1;" edge="1" parent="1" source="mtaF9fKcRwbSf19sw3Pu-31" target="mtaF9fKcRwbSf19sw3Pu-25">
          <mxGeometry relative="1" as="geometry" />
        </mxCell>
        <mxCell id="mtaF9fKcRwbSf19sw3Pu-38" value="Return data" style="edgeLabel;html=1;align=center;verticalAlign=middle;resizable=0;points=[];" vertex="1" connectable="0" parent="mtaF9fKcRwbSf19sw3Pu-37">
          <mxGeometry x="0.2906" y="2" relative="1" as="geometry">
            <mxPoint y="11" as="offset" />
          </mxGeometry>
        </mxCell>
        <mxCell id="mtaF9fKcRwbSf19sw3Pu-31" value="Core&amp;amp;Ops PROMOS APIs" style="rounded=1;whiteSpace=wrap;html=1;" vertex="1" parent="1">
          <mxGeometry x="1587.5" y="1120" width="160" height="80" as="geometry" />
        </mxCell>
        <mxCell id="mtaF9fKcRwbSf19sw3Pu-45" style="edgeStyle=orthogonalEdgeStyle;rounded=0;orthogonalLoop=1;jettySize=auto;html=1;exitX=0.75;exitY=0;exitDx=0;exitDy=0;entryX=0.75;entryY=1;entryDx=0;entryDy=0;dashed=1;" edge="1" parent="1" source="mtaF9fKcRwbSf19sw3Pu-41" target="mtaF9fKcRwbSf19sw3Pu-26">
          <mxGeometry relative="1" as="geometry" />
        </mxCell>
        <mxCell id="mtaF9fKcRwbSf19sw3Pu-46" value="Return data" style="edgeLabel;html=1;align=center;verticalAlign=middle;resizable=0;points=[];" vertex="1" connectable="0" parent="mtaF9fKcRwbSf19sw3Pu-45">
          <mxGeometry x="-0.0219" y="-4" relative="1" as="geometry">
            <mxPoint as="offset" />
          </mxGeometry>
        </mxCell>
        <mxCell id="mtaF9fKcRwbSf19sw3Pu-41" value="Core&amp;amp;Ops PROMOS APIs" style="rounded=1;whiteSpace=wrap;html=1;" vertex="1" parent="1">
          <mxGeometry x="1892.5" y="1120" width="160" height="80" as="geometry" />
        </mxCell>
        <mxCell id="mtaF9fKcRwbSf19sw3Pu-49" value="ARCHITECTURE SOLUTION&amp;nbsp;&lt;div&gt;Editing Promos&lt;/div&gt;" style="rounded=1;whiteSpace=wrap;html=1;fillColor=#fff2cc;strokeColor=#d6b656;" vertex="1" parent="1">
          <mxGeometry x="2192.5" y="520" width="440" height="40" as="geometry" />
        </mxCell>
        <mxCell id="mtaF9fKcRwbSf19sw3Pu-50" value="COCKPIT Promo Module" style="rounded=1;whiteSpace=wrap;html=1;" vertex="1" parent="1">
          <mxGeometry x="2292.5" y="600" width="240" height="80" as="geometry" />
        </mxCell>
        <mxCell id="mtaF9fKcRwbSf19sw3Pu-51" value="" style="edgeStyle=orthogonalEdgeStyle;rounded=0;orthogonalLoop=1;jettySize=auto;html=1;exitX=0.5;exitY=1;exitDx=0;exitDy=0;" edge="1" parent="1" source="mtaF9fKcRwbSf19sw3Pu-50" target="mtaF9fKcRwbSf19sw3Pu-57">
          <mxGeometry relative="1" as="geometry">
            <mxPoint x="2502.5" y="759.9999999999998" as="sourcePoint" />
          </mxGeometry>
        </mxCell>
        <mxCell id="mtaF9fKcRwbSf19sw3Pu-52" value="Cargar Promos" style="edgeLabel;html=1;align=center;verticalAlign=middle;resizable=0;points=[];" vertex="1" connectable="0" parent="mtaF9fKcRwbSf19sw3Pu-51">
          <mxGeometry x="-0.2234" y="-1" relative="1" as="geometry">
            <mxPoint as="offset" />
          </mxGeometry>
        </mxCell>
        <mxCell id="mtaF9fKcRwbSf19sw3Pu-53" style="edgeStyle=orthogonalEdgeStyle;rounded=0;orthogonalLoop=1;jettySize=auto;html=1;exitX=0;exitY=0.5;exitDx=0;exitDy=0;strokeWidth=3;fillColor=#d5e8d4;strokeColor=#82b366;" edge="1" parent="1" source="mtaF9fKcRwbSf19sw3Pu-57" target="mtaF9fKcRwbSf19sw3Pu-61">
          <mxGeometry relative="1" as="geometry" />
        </mxCell>
        <mxCell id="mtaF9fKcRwbSf19sw3Pu-54" value="&lt;b&gt;&lt;font style=&quot;color: rgb(0, 204, 0);&quot;&gt;YES&lt;/font&gt;&lt;/b&gt;" style="edgeLabel;html=1;align=center;verticalAlign=middle;resizable=0;points=[];" vertex="1" connectable="0" parent="mtaF9fKcRwbSf19sw3Pu-53">
          <mxGeometry x="-0.2457" y="4" relative="1" as="geometry">
            <mxPoint x="25" y="-4" as="offset" />
          </mxGeometry>
        </mxCell>
        <mxCell id="mtaF9fKcRwbSf19sw3Pu-55" style="edgeStyle=orthogonalEdgeStyle;rounded=0;orthogonalLoop=1;jettySize=auto;html=1;entryX=0.5;entryY=0;entryDx=0;entryDy=0;exitX=1;exitY=0.5;exitDx=0;exitDy=0;fillColor=#f8cecc;strokeColor=#b85450;strokeWidth=4;" edge="1" parent="1" source="mtaF9fKcRwbSf19sw3Pu-57" target="mtaF9fKcRwbSf19sw3Pu-64">
          <mxGeometry relative="1" as="geometry" />
        </mxCell>
        <mxCell id="mtaF9fKcRwbSf19sw3Pu-56" value="&lt;b&gt;&lt;font style=&quot;color: rgb(255, 0, 0);&quot;&gt;NO&lt;/font&gt;&lt;/b&gt;" style="edgeLabel;html=1;align=center;verticalAlign=middle;resizable=0;points=[];" vertex="1" connectable="0" parent="mtaF9fKcRwbSf19sw3Pu-55">
          <mxGeometry x="-0.3165" y="2" relative="1" as="geometry">
            <mxPoint x="-36" y="2" as="offset" />
          </mxGeometry>
        </mxCell>
        <mxCell id="mtaF9fKcRwbSf19sw3Pu-57" value="Is country enabled on Core&amp;amp;Ops?" style="rhombus;whiteSpace=wrap;html=1;rounded=1;" vertex="1" parent="1">
          <mxGeometry x="2337.5" y="770" width="150" height="150" as="geometry" />
        </mxCell>
        <mxCell id="mtaF9fKcRwbSf19sw3Pu-58" value="" style="edgeStyle=orthogonalEdgeStyle;rounded=0;orthogonalLoop=1;jettySize=auto;html=1;" edge="1" parent="1" source="mtaF9fKcRwbSf19sw3Pu-61" target="mtaF9fKcRwbSf19sw3Pu-67">
          <mxGeometry relative="1" as="geometry" />
        </mxCell>
        <mxCell id="mtaF9fKcRwbSf19sw3Pu-59" style="edgeStyle=orthogonalEdgeStyle;rounded=0;orthogonalLoop=1;jettySize=auto;html=1;exitX=0.25;exitY=0;exitDx=0;exitDy=0;entryX=0;entryY=0.5;entryDx=0;entryDy=0;dashed=1;" edge="1" parent="1" source="mtaF9fKcRwbSf19sw3Pu-61" target="mtaF9fKcRwbSf19sw3Pu-50">
          <mxGeometry relative="1" as="geometry" />
        </mxCell>
        <mxCell id="mtaF9fKcRwbSf19sw3Pu-60" value="Adapt response to Cockpit&amp;nbsp;&lt;div&gt;omnichannel experience&lt;/div&gt;" style="edgeLabel;html=1;align=center;verticalAlign=middle;resizable=0;points=[];" vertex="1" connectable="0" parent="mtaF9fKcRwbSf19sw3Pu-59">
          <mxGeometry x="0.1102" y="-3" relative="1" as="geometry">
            <mxPoint as="offset" />
          </mxGeometry>
        </mxCell>
        <mxCell id="mtaF9fKcRwbSf19sw3Pu-61" value="Core&amp;amp;Ops Adapter" style="rounded=1;whiteSpace=wrap;html=1;" vertex="1" parent="1">
          <mxGeometry x="2180" y="960" width="160" height="80" as="geometry" />
        </mxCell>
        <mxCell id="mtaF9fKcRwbSf19sw3Pu-62" style="edgeStyle=orthogonalEdgeStyle;rounded=0;orthogonalLoop=1;jettySize=auto;html=1;exitX=0.5;exitY=1;exitDx=0;exitDy=0;entryX=0.5;entryY=0;entryDx=0;entryDy=0;" edge="1" parent="1" source="mtaF9fKcRwbSf19sw3Pu-64" target="mtaF9fKcRwbSf19sw3Pu-70">
          <mxGeometry relative="1" as="geometry" />
        </mxCell>
        <mxCell id="mtaF9fKcRwbSf19sw3Pu-63" value="&lt;meta charset=&quot;utf-8&quot;&gt;&lt;span style=&quot;color: rgb(0, 0, 0); font-family: Helvetica; font-size: 11px; font-style: normal; font-variant-ligatures: normal; font-variant-caps: normal; font-weight: 400; letter-spacing: normal; orphans: 2; text-align: center; text-indent: 0px; text-transform: none; widows: 2; word-spacing: 0px; -webkit-text-stroke-width: 0px; white-space: nowrap; background-color: rgb(255, 255, 255); text-decoration-thickness: initial; text-decoration-style: initial; text-decoration-color: initial; display: inline !important; float: none;&quot;&gt;Adapt response to Cockpit&amp;nbsp;&lt;/span&gt;&lt;div style=&quot;forced-color-adjust: none; color: rgb(0, 0, 0); font-family: Helvetica; font-size: 11px; font-style: normal; font-variant-ligatures: normal; font-variant-caps: normal; font-weight: 400; letter-spacing: normal; orphans: 2; text-align: center; text-indent: 0px; text-transform: none; widows: 2; word-spacing: 0px; -webkit-text-stroke-width: 0px; white-space: nowrap; text-decoration-thickness: initial; text-decoration-style: initial; text-decoration-color: initial;&quot;&gt;omnichannel experience&lt;/div&gt;" style="edgeStyle=orthogonalEdgeStyle;rounded=0;orthogonalLoop=1;jettySize=auto;html=1;exitX=0.75;exitY=0;exitDx=0;exitDy=0;entryX=1;entryY=0.5;entryDx=0;entryDy=0;dashed=1;" edge="1" parent="1" source="mtaF9fKcRwbSf19sw3Pu-64" target="mtaF9fKcRwbSf19sw3Pu-50">
          <mxGeometry x="0.2229" relative="1" as="geometry">
            <mxPoint as="offset" />
          </mxGeometry>
        </mxCell>
        <mxCell id="mtaF9fKcRwbSf19sw3Pu-64" value="EDB Adapter" style="rounded=1;whiteSpace=wrap;html=1;" vertex="1" parent="1">
          <mxGeometry x="2485" y="960" width="160" height="80" as="geometry" />
        </mxCell>
        <mxCell id="mtaF9fKcRwbSf19sw3Pu-65" style="edgeStyle=orthogonalEdgeStyle;rounded=0;orthogonalLoop=1;jettySize=auto;html=1;exitX=0.25;exitY=0;exitDx=0;exitDy=0;entryX=0.25;entryY=1;entryDx=0;entryDy=0;dashed=1;" edge="1" parent="1" source="mtaF9fKcRwbSf19sw3Pu-67" target="mtaF9fKcRwbSf19sw3Pu-61">
          <mxGeometry relative="1" as="geometry" />
        </mxCell>
        <mxCell id="mtaF9fKcRwbSf19sw3Pu-66" value="Return data" style="edgeLabel;html=1;align=center;verticalAlign=middle;resizable=0;points=[];" vertex="1" connectable="0" parent="mtaF9fKcRwbSf19sw3Pu-65">
          <mxGeometry x="0.2906" y="2" relative="1" as="geometry">
            <mxPoint y="11" as="offset" />
          </mxGeometry>
        </mxCell>
        <mxCell id="mtaF9fKcRwbSf19sw3Pu-67" value="Core&amp;amp;Ops PROMOS APIs" style="rounded=1;whiteSpace=wrap;html=1;" vertex="1" parent="1">
          <mxGeometry x="2180" y="1120" width="160" height="80" as="geometry" />
        </mxCell>
        <mxCell id="mtaF9fKcRwbSf19sw3Pu-68" style="edgeStyle=orthogonalEdgeStyle;rounded=0;orthogonalLoop=1;jettySize=auto;html=1;exitX=0.75;exitY=0;exitDx=0;exitDy=0;entryX=0.75;entryY=1;entryDx=0;entryDy=0;dashed=1;" edge="1" parent="1" source="mtaF9fKcRwbSf19sw3Pu-70" target="mtaF9fKcRwbSf19sw3Pu-64">
          <mxGeometry relative="1" as="geometry" />
        </mxCell>
        <mxCell id="mtaF9fKcRwbSf19sw3Pu-69" value="Return data" style="edgeLabel;html=1;align=center;verticalAlign=middle;resizable=0;points=[];" vertex="1" connectable="0" parent="mtaF9fKcRwbSf19sw3Pu-68">
          <mxGeometry x="-0.0219" y="-4" relative="1" as="geometry">
            <mxPoint as="offset" />
          </mxGeometry>
        </mxCell>
        <mxCell id="mtaF9fKcRwbSf19sw3Pu-70" value="Core&amp;amp;Ops PROMOS APIs" style="rounded=1;whiteSpace=wrap;html=1;" vertex="1" parent="1">
          <mxGeometry x="2485" y="1120" width="160" height="80" as="geometry" />
        </mxCell>
      </root>
    </mxGraphModel>
  </diagram>
</mxfile>
